inDegrees=yes
name=ik_S54_A08_T02
DataType=double
version=3
OpenSimVersion=4.3-2021-08-27-4bc7ad9
endheader
time	pelvis_tilt	pelvis_list	pelvis_rotation	pelvis_tx	pelvis_ty	pelvis_tz	hip_flexion_r	hip_adduction_r	hip_rotation_r	knee_angle_r	knee_angle_r_beta	ankle_angle_r	subtalar_angle_r	mtp_angle_r	hip_flexion_l	hip_adduction_l	hip_rotation_l	knee_angle_l	knee_angle_l_beta	ankle_angle_l	subtalar_angle_l	mtp_angle_l	lumbar_extension	lumbar_bending	lumbar_rotation	arm_flex_r	arm_add_r	arm_rot_r	elbow_flex_r	pro_sup_r	wrist_flex_r	wrist_dev_r	arm_flex_l	arm_add_l	arm_rot_l	elbow_flex_l	pro_sup_l	wrist_flex_l	wrist_dev_l
20.05999999999966	-8.728705164472885	-2.808624742507739	29.80818038270293	0	0.9399999999999999	0	44.67663662736757	-10.00254465096311	-10.01492024050537	55.18662445835469	0.9631882998599216	0	0	0	44.67663662736757	-10.00254465096311	-10.01492024050537	55.18662445835469	0.9631882998599216	0	0	0	-0.3360896664552094	1.745123981204578	-10.08688814763413	31.49838433172859	-2.291131557170656	-1.115229459442823	47.75890542914634	134.313017121645	0	0	57.40924600230023	-32.08011335118786	9.123662546925004	71.91744764239664	99.46219167215882	0	0
20.07999999999966	-8.793658834385742	-2.78621206287498	29.53534911233023	0	0.9399999999999999	0	44.67680940906261	-10.00253989491325	-10.01490236082269	55.18655784956977	0.9631871373173141	0	0	0	44.67680940906261	-10.00253989491325	-10.01490236082269	55.18655784956977	0.9631871373173141	0	0	0	-0.3856877022407573	1.797633355650237	-10.11622581147781	31.62706092624806	-2.077370559978504	-0.9965265956069891	47.70704976037067	134.4518253860259	0	0	58.3050586928555	-31.77388619375083	9.25383923160955	70.94866807550419	99.66224962980651	0	0
20.09999999999966	-8.85494299764601	-2.771620850340397	29.06536640925859	0	0.9399999999999999	0	44.67699521985561	-10.00253486812072	-10.01488334679967	55.18648514571274	0.96318586839563	0	0	0	44.67699521985561	-10.00253486812072	-10.01488334679967	55.18648514571274	0.96318586839563	0	0	0	-0.4255827742087214	1.836293581266722	-9.858770382730489	31.72988935410115	-1.965355444839986	-0.8568985643487296	47.72034829922908	134.3836426603025	0	0	59.21371070182871	-31.20966053528356	9.451266054738474	67.700731289487	100.7877719203844	0	0
20.11999999999966	-8.940797678038354	-2.745531094096471	28.27501375110508	0	0.9399999999999999	0	44.67723504815544	-10.00252843473436	-10.01485893646676	55.18639067660751	0.9631842195987023	0	0	0	44.67723504815544	-10.00252843473436	-10.01485893646676	55.18639067660751	0.9631842195987023	0	0	0	-0.4776766301071867	1.88936689384628	-9.363522939215727	31.8729438191168	-1.902406848082306	-0.6154020399074506	47.80324860890872	134.076868138398	0	0	60.04379780565119	-30.59299129719687	9.63062339870406	62.49761720020473	101.5821520121517	0	0
20.13999999999966	-8.982781133273994	-2.734970935782271	27.83684606230115	0	0.9399999999999999	0	44.67740756879213	-10.00252372626083	-10.01484117111938	55.186323880755	0.9631830537911492	0	0	0	44.67740756879213	-10.00252372626083	-10.01484117111938	55.186323880755	0.9631830537911492	0	0	0	-0.4946930097054136	1.903804085016979	-9.054881104723039	31.96686490889842	-1.826845117255657	-0.5444906273595963	47.80584598096933	133.9468379671628	0	0	62.13340807121354	-29.32007140049218	10.78038809883261	58.09332059087536	101.6647433823844	0	0
20.15999999999966	-9.01945416280436	-2.700757176481938	27.92623191194089	0	0.9399999999999999	0	44.67760689528713	-10.00251834933331	-10.01482079941166	55.18624593209566	0.9631816933303963	0	0	0	44.67760689528713	-10.00251834933331	-10.01482079941166	55.18624593209566	0.9631816933303963	0	0	0	-0.5312927802427276	1.96423961370364	-9.359969454715209	32.12649337608647	-1.75676244937857	-0.3963891130573882	47.74613898790894	133.8561385570401	0	0	62.01508465651333	-29.28061074932839	10.48111801226658	53.99383850525657	104.0430270166602	0	0
20.17999999999966	-9.052344512294995	-2.683216696815992	27.63614090681304	0	0.9399999999999999	0	44.67778045976545	-10.00251363355528	-10.01480297110085	55.18617860549918	0.9631805182596136	0	0	0	44.67778045976545	-10.00251363355528	-10.01480297110085	55.18617860549918	0.9631805182596136	0	0	0	-0.5478330594706143	1.98839247654838	-9.189700012569135	32.22869128467594	-1.671488933935587	-0.3382176655192363	47.68594417858912	133.8530903570009	0	0	62.98624430084627	-28.6563839901025	11.12706873206586	51.22606578472779	105.1011728412518	0	0
20.19999999999966	-9.104725034241158	-2.645221732304609	27.4850881280233	0	0.9399999999999999	0	44.6779719938304	-10.00250848047247	-10.01478342130748	55.18610368286324	0.9631792106129321	0	0	0	44.6779719938304	-10.00250848047247	-10.01478342130748	55.18610368286324	0.9631792106129321	0	0	0	-0.5853543668507107	2.051195731624145	-9.269695149178759	32.32314201726288	-1.656697945476281	-0.08828462069982752	47.74199719295068	133.7106629653217	0	0	62.90234908449818	-28.72915809866108	10.86871206981666	49.6345237531127	105.5506980783442	0	0
20.21999999999966	-9.174925282162254	-2.604602088558831	27.09224667821538	0	0.9399999999999999	0	44.67816650058462	-10.00250317835864	-10.01476338922152	55.18602863717744	0.9631779008186254	0	0	0	44.67816650058462	-10.00250317835864	-10.01476338922152	55.18602863717744	0.9631779008186254	0	0	0	-0.6264792988357791	2.113324875399137	-9.110871370456616	32.5142453355407	-1.571399861514363	0.1055090206555393	47.69725187539972	133.663316817843	0	0	64.1606812458904	-27.51206722438614	12.70976645980573	46.60133897515663	105.0558307304043	0	0
20.23999999999966	-9.257382716621265	-2.561757656207301	26.83219890369568	0	0.9399999999999999	0	44.67832615317458	-10.00249883677617	-10.0147469691511	55.1859669676541	0.9631768244823949	0	0	0	44.67832615317458	-10.00249883677617	-10.0147469691511	55.1859669676541	0.9631768244823949	0	0	0	-0.6832618447435502	2.18772696701039	-9.081341559766482	32.75642055120439	-1.514899147344246	0.2603875756752805	47.6204441107044	133.638724958882	0	0	64.6395663015074	-27.08825594012916	13.55631250429761	44.59650066537002	104.8286113021633	0	0
20.25999999999966	-9.337029433025023	-2.523478700520744	26.61124068267789	0	0.9399999999999999	0	44.67850146720532	-10.00249406556295	-10.01472892507196	55.18589937056372	0.9631756446906032	0	0	0	44.67850146720532	-10.00249406556295	-10.01472892507196	55.18589937056372	0.9631756446906032	0	0	0	-0.7417255559357543	2.258632104875488	-9.105350375039734	33.02146845962749	-1.369097268571729	0.2733923905032538	47.48155482942052	133.7444324394716	0	0	65.18804141227444	-26.82011770151973	14.22031347473732	44.03478627902187	104.4581366053184	0	0
20.27999999999966	-9.46181078094526	-2.45158961111154	26.28909989906247	0	0.9399999999999999	0	44.67862380184682	-10.0024907563102	-10.01471638186122	55.18585197550284	0.9631748174907415	0	0	0	44.67862380184682	-10.0024907563102	-10.01471638186122	55.18585197550284	0.9631748174907415	0	0	0	-0.8266559830833542	2.380615861235795	-9.161303506578655	33.24093910670518	-1.263764300683681	0.6387875347152184	47.54343852167515	133.6542190205778	0	0	65.70439660955464	-26.62962116908011	14.49166906680125	42.16212897914207	104.8068366723951	0	0
20.29999999999966	-9.588611534906347	-2.401271685530433	26.03700735122132	0	0.9399999999999999	0	44.67882967113793	-10.002485175374	-10.0146952392826	55.1857724586582	0.9631734296599919	0	0	0	44.67882967113793	-10.002485175374	-10.0146952392826	55.1857724586582	0.9631734296599919	0	0	0	-0.9234768682200124	2.482591050337349	-9.177851735788611	33.45271411937684	-1.210082058758094	0.9156964213982196	47.58614774285922	133.5669526023145	0	0	66.16988050310579	-26.27972436186909	14.68674609727103	40.54204343486751	105.2458910044486	0	0
20.31999999999966	-9.621178432310268	-2.37272387823028	25.87814959460767	0	0.9399999999999999	0	44.67892286003765	-10.00248266798168	-10.01468571444666	55.18573624349332	0.9631727975861256	0	0	0	44.67892286003765	-10.00248266798168	-10.01468571444666	55.18573624349332	0.9631727975861256	0	0	0	-0.9415664867145533	2.521414612135177	-9.149760502468961	33.47131347086374	-1.149216411726335	1.051877001345834	47.60438258923273	133.549402292454	0	0	66.35901274694572	-25.90014982587713	14.88594651884518	39.27409819896626	105.2524662979533	0	0
